<?xml version="1.0" encoding="UTF-8"?>
<svg version="1.1" xmlns="http://www.w3.org/2000/svg" width="961" height="1075">
<path d="M0 0 C252.12 0 504.24 0 764 0 C764 1.98 764 3.96 764 6 C734.96 6 705.92 6 676 6 C675.34 7.65 674.68 9.3 674 11 C667.77106043 18.75820018 656.50151706 22.30766262 647 24 C644.84673244 24.13847538 642.7137834 24.16795972 640.55639648 24.17480469 C633.88100815 24.05613481 633.88100815 24.05613481 627.84765625 26.44140625 C626.41075447 28.22697907 626.41075447 28.22697907 625.2109375 30.1640625 C619.94464905 38.14843531 606.64867055 40.67721006 597.9140625 42.72265625 C589.9355462 44.13617292 581.86060563 44.3847632 573.77709961 44.65917969 C568.77439646 44.83225582 563.93917508 45.17680415 559 46 C559.928125 46.66 560.85625 47.32 561.8125 48 C566.46134003 51.89051861 567.67826956 56.51807943 568.4375 62.375 C567.49472494 70.18656476 564.91473974 76.04253201 558.68359375 80.94140625 C555.3145263 83.0597758 552.37047327 83.1354045 548.5 83.125 C547.06140625 83.12886719 547.06140625 83.12886719 545.59375 83.1328125 C543 83 543 83 540 82 C540 81.34 540 80.68 540 80 C540.67546875 79.76925781 541.3509375 79.53851562 542.046875 79.30078125 C549.28368054 76.77117869 549.28368054 76.77117869 554 71 C554.75 67.5 554.75 67.5 554 64 C550.80121581 60.00151977 547.62844338 57.39323169 542.51953125 56.62890625 C536.79086808 56.48837627 531.93364984 56.86017976 526.98828125 59.92578125 C523.87456868 63.17407472 522.63151989 67.10561989 521.16235352 71.27001953 C519.08205808 77.13494884 516.23904434 81.41675975 512 86 C511.41734375 86.67289063 510.8346875 87.34578125 510.234375 88.0390625 C496.60366486 102.87248235 476.11493576 109.12435212 456.48046875 110.12890625 C449.97175277 110.27185023 443.77597215 109.5020046 437.359375 108.4375 C430.83062436 107.5872441 425.43245982 108.10183571 419.1875 110.125 C418.48681396 110.35018311 417.78612793 110.57536621 417.06420898 110.80737305 C411.16421567 112.79035271 406.04526588 115.32279413 401 119 C399.71029297 119.87785156 399.71029297 119.87785156 398.39453125 120.7734375 C397.56308594 121.40507813 396.73164062 122.03671875 395.875 122.6875 C395.12992188 123.24824219 394.38484375 123.80898438 393.6171875 124.38671875 C389.31266077 131.34258441 392.37770611 141.83570108 393.8125 149.4375 C394.0609668 150.88672852 394.0609668 150.88672852 394.31445312 152.36523438 C394.48525391 153.29529297 394.65605469 154.22535156 394.83203125 155.18359375 C394.98389893 156.01431396 395.1357666 156.84503418 395.29223633 157.70092773 C395.88241497 160.09587416 395.88241497 160.09587416 397.5847168 162.05493164 C399 164 399 164 398.8125 167.9375 C398.64892093 170.02461297 398.64892093 170.02461297 399 172 C401.800674 174.80618008 401.800674 174.80618008 405 177 C407.59630748 181.19068422 407.88702737 185.20546415 407 190 C404.60190934 194.94411548 401.64918262 198.9950405 397 202 C396.34 202 395.68 202 395 202 C394.58013054 204.28836222 394.58013054 204.28836222 395 207 C396.2065625 208.11375 396.2065625 208.11375 397.4375 209.25 C400.53625256 212.57549055 400.58684356 214.3327141 400.6640625 218.71875 C400.85844335 221.13381362 400.85844335 221.13381362 402.50390625 223.32421875 C404.44343317 226.79308544 404.3003902 229.36066809 404.3125 233.3125 C404.53177194 238.94547347 405.12026553 243.04223257 409.0234375 247.296875 C421.65555977 258.18147047 436.65184612 260.32978015 452.58618164 263.07470703 C460.36879818 264.47076039 467.95014197 266.2342433 474.5625 270.75 C476.70399593 274.10190668 477.63905484 277.01938133 477 281 C473.15421895 287.57306801 464.19739866 289.5621276 457.31347656 291.42529297 C430.31960748 298.13103039 401.71745319 299.6481039 374 299 C372.7013501 298.97317139 372.7013501 298.97317139 371.37646484 298.94580078 C301.32774745 297.32774745 301.32774745 297.32774745 286 282 C285.21055025 275.12050932 285.21055025 275.12050932 287.9375 271.25 C297.26075092 264.40026463 308.35480538 263.18105055 319.48461914 261.29907227 C332.87000264 259.00733887 347.45793036 255.5966705 356 244 C358.02373136 240.76606384 358.14786098 238.52570982 357.9375 234.75 C357.80648405 228.63319306 359.26988068 224.46023865 362 219 C361.9175 218.0925 361.835 217.185 361.75 216.25 C362 213 362 213 364.5625 209.9375 C367.29051217 207.31817475 367.29051217 207.31817475 366.89453125 204.52734375 C365.82200974 201.49711922 364.67242007 200.53789786 362.125 198.625 C358.2838258 195.42517087 356.28490748 192.96830891 355 188 C354.73614893 183.06343162 355.18340034 179.98851537 358.375 176.125 C359.86198873 174.92124722 361.35670923 173.72652293 362.875 172.5625 C363.24625 172.046875 363.6175 171.53125 364 171 C363.814375 170.0925 363.62875 169.185 363.4375 168.25 C363 165 363 165 364.83203125 162.0859375 C367.94552636 156.93593817 368.41931192 151.24428791 369.25 145.375 C369.50910156 143.69664062 369.50910156 143.69664062 369.7734375 141.984375 C371.58472079 133.72029143 371.58472079 133.72029143 369.671875 126.0078125 C361.81150809 118.30720914 353.11740632 113.40408525 342.6875 110.0625 C342.03007812 109.85085205 341.37265625 109.6392041 340.6953125 109.42114258 C333.97223478 107.42713885 328.07800035 107.86724418 321.25 109 C300.1946676 112.10943727 278.80286143 107.85894071 261 96 C249.87844525 87.69014462 243.46649246 78.06560013 238.6875 65.13671875 C236.20119081 60.51517643 232.89549046 58.63183015 228 57 C220.82359339 56.30292866 215.84414946 56.64797381 210 61 C207.64379563 64.53430656 207.51008387 65.83571287 208 70 C210.1224439 74.82373614 212.51594796 76.47065045 217.25 78.375 C218.82675645 78.93552325 220.40824929 79.48359233 222 80 C222 80.66 222 81.32 222 82 C216.74256329 83.7524789 210.87702007 84.10508056 205.640625 82.09375 C199.96581822 78.76566783 196.60761656 74.51258984 194.6875 68.1875 C193.41600756 62.19659419 193.91229613 57.02537961 196.8125 51.625 C198.74835228 49.30197726 200.46852061 47.62737961 203 46 C198.16519714 45.18870293 193.47642799 44.87859323 188.578125 44.76123047 C169.54828434 44.25390244 149.87269063 42.08595453 135 29 C134.56042969 28.26652344 134.12085938 27.53304687 133.66796875 26.77734375 C132.00657863 24.62818173 132.00657863 24.62818173 128.55078125 24.56640625 C127.13807676 24.55376875 125.7252305 24.553214 124.3125 24.5625 C112.42516083 24.23952998 98.88754357 21.52044938 90 13 C89.21269501 11.48561844 89.21269501 11.48561844 88.40948486 9.94064331 C86.21724538 6.63316597 86.21724538 6.63316597 82.25408936 6.24050903 C80.72024254 6.20545676 79.18543082 6.20331302 77.65136719 6.22705078 C76.81197601 6.21642105 75.97258484 6.20579132 75.10775757 6.19483948 C72.33685535 6.16676317 69.56785467 6.18085357 66.796875 6.1953125 C64.87443374 6.18406397 62.95200622 6.17018403 61.02960205 6.15377808 C55.97256938 6.11769434 50.91614071 6.11737233 45.85900879 6.12445068 C40.69756215 6.12536264 35.53634303 6.09251871 30.375 6.0625 C20.24993676 6.00859484 10.12519085 5.99246112 0 6 C0 4.02 0 2.04 0 0 Z M152 24 C156.5083495 28.59232033 156.5083495 28.59232033 161.625 31.6875 C162.38039063 32.08324219 163.13578125 32.47898437 163.9140625 32.88671875 C174.56697755 36.72985899 185.85162149 36.36124985 197.02172852 36.45629883 C210.11068755 36.58853989 222.31900707 37.4856001 234 44 C234.66 44 235.32 44 236 44 C236.99 37.4 237.98 30.8 239 24 C210.29 24 181.58 24 152 24 Z M254.01171875 27.2578125 C252.8294995 29.12432693 252.8294995 29.12432693 252 31 C251.29423828 32.22589844 251.29423828 32.22589844 250.57421875 33.4765625 C250.28160156 34.18554688 249.98898437 34.89453125 249.6875 35.625 C249.38199219 36.33914063 249.07648438 37.05328125 248.76171875 37.7890625 C245.12796254 48.33627285 246.732849 58.89689248 251 69 C253.03720331 72.61553162 255.34900451 75.81202248 258 79 C258.51175781 79.62390625 259.02351563 80.2478125 259.55078125 80.890625 C272.15329611 94.77528158 292.74289674 100.87212274 310.90625 102.21484375 C328.56158452 102.79561133 345.72100085 96.60496642 358.62109375 84.55078125 C360.78553224 82.3998494 362.91161105 80.22458823 365 78 C364.32361989 74.89184215 364.32361989 74.89184215 361.9375 73.75 C360 72 360 72 359.625 68.4375 C360 65 360 65 362 63 C364.65537372 62.43479997 367.29144713 62.26211802 370 62 C368.79876663 51.47885254 365.4171897 40.93180328 357 34 C356.58041016 35.10794922 356.58041016 35.10794922 356.15234375 36.23828125 C349.84490298 52.1995542 342.12244939 62.74094212 326.2109375 69.7734375 C320.28479427 72.03719538 314.83652129 73.28819442 308.5 73.6875 C307.2521875 73.77386719 306.004375 73.86023438 304.71875 73.94921875 C301.02652635 73.99963777 297.63413517 73.6228608 294 73 C294.55349121 72.90501221 295.10698242 72.81002441 295.67724609 72.7121582 C311.68154748 69.90599298 323.24866552 67.08525406 334 54 C339.66863277 45.37499895 342.58238599 35.28881917 342 25 C338.50007304 24.20293232 335.2857769 23.88136973 331.69921875 23.90234375 C330.72275391 23.90556641 329.74628906 23.90878906 328.74023438 23.91210938 C327.22913086 23.92467773 327.22913086 23.92467773 325.6875 23.9375 C324.66076172 23.94201172 323.63402344 23.94652344 322.57617188 23.95117188 C320.05072118 23.96291816 317.52539095 23.97934435 315 24 C315.15984375 25.20914063 315.3196875 26.41828125 315.484375 27.6640625 C316.76318678 37.97164821 316.24215458 46.87593023 311.3125 56.1875 C305.97086567 62.6840823 300.48693155 67.60607083 292 69 C284.29050418 69.73938053 276.92813136 70.40696139 270.515625 65.5 C266.19127563 61.22023155 264.13941547 57.16093984 263.75 51.125 C263.79896877 47.31942721 264.58791205 45.03744409 267 42 C267.99 41.34 268.98 40.68 270 40 C269.93039062 41.08667969 269.93039062 41.08667969 269.859375 42.1953125 C269.68428859 46.88512699 269.62301419 50.18803056 271.625 54.5 C276.0159804 59.12208463 279.67168244 60.19500269 285.9375 60.4375 C291.56439422 60.26318481 294.65474999 59.62104168 299 56 C302.21199567 51.94765662 303.3203753 48.21253292 303 43.0625 C301.91480028 35.93745131 299.14924715 29.12334289 294 24 C291.11819382 23.46611881 288.82936324 23.25079178 285.9453125 23.265625 C285.16614471 23.25609802 284.38697693 23.24657104 283.584198 23.23675537 C281.93850096 23.2246097 280.2926642 23.22541172 278.64697266 23.23828125 C276.13844745 23.24993751 273.63669247 23.19778814 271.12890625 23.140625 C261.70456962 22.69507067 261.70456962 22.69507067 254.01171875 27.2578125 Z M420 26 C420.54244397 40.02217659 425.01915499 51.65179777 435.375 61.3125 C442.22380844 67.43025585 449.6142532 69.67432978 458.5 71.25 C459.4178125 71.42273438 460.335625 71.59546875 461.28125 71.7734375 C463.51907979 72.19303059 465.75831438 72.60162044 468 73 C450.57843364 74.90709454 435.77947167 72.29907797 421.609375 61.42578125 C413.83499203 54.19839828 408.90952104 45.15280418 406 35 C400.50729529 37.18284593 398.52780087 41.92315624 396 47 C394.03460046 52.06327836 392.82627364 56.54692262 393 62 C395.97 62.66 398.94 63.32 402 64 C402.8125 67.1875 402.8125 67.1875 403 71 C400.5 73.6875 400.5 73.6875 398 76 C398.33100395 80.49613694 401.34848182 82.89011499 404.44921875 85.84765625 C418.49913178 97.70294274 435.68558082 103.12768374 454 102 C474.430453 99.50176844 493.52064141 92.19411558 507 76 C513.85909413 65.80366545 516.18124271 56.2445891 515 44 C513.44254925 37.68991602 510.97822858 32.13319817 507 27 C506.44372925 26.19900879 506.44372925 26.19900879 505.8762207 25.38183594 C502.8965262 23.18729191 499.61357148 23.45106965 496.04296875 23.390625 C495.26238602 23.37352478 494.48180328 23.35642456 493.67756653 23.33880615 C492.02597211 23.31048339 490.37420885 23.29086475 488.72241211 23.27929688 C486.20448045 23.25019625 483.69393599 23.15719974 481.17773438 23.0625 C472.89936424 22.66066133 472.89936424 22.66066133 465.59619141 25.88085938 C463.99107301 28.23028867 462.95544248 30.32572806 462 33 C461.63970703 33.87769043 461.27941406 34.75538086 460.90820312 35.65966797 C458.90562673 40.82007048 458.55410061 45.42623744 460.0625 50.75 C462.80895273 55.35695296 465.79432945 58.26477648 471 60 C478.09113208 60.68878831 483.37856502 60.58892652 489 56 C492.05145424 52.0021527 493.35633384 48.52900422 492.75 43.5 C492.37875 41.7675 492.37875 41.7675 492 40 C496.875 43.625 496.875 43.625 498 47 C498.53849036 53.35418627 497.63972798 57.69942527 494 63 C488.23874737 68.47319 483.71053482 69.40815244 475.85522461 69.36352539 C466.8567507 69.11920819 460.18541791 66.07136375 453.6875 59.9140625 C447.77905031 53.21234873 445.529575 43.9863518 445.80761719 35.17382812 C446.01796075 32.79705261 446.47739698 30.57377812 447.015625 28.25 C447.19899414 27.45078125 447.38236328 26.6515625 447.57128906 25.828125 C447.71276367 25.22484375 447.85423828 24.6215625 448 24 C444.45840343 23.94158747 440.91693207 23.90626548 437.375 23.875 C435.87646484 23.84986328 435.87646484 23.84986328 434.34765625 23.82421875 C429.15911291 23.78985754 424.85076351 23.89745063 420 26 Z M523 24 C523.99 30.93 524.98 37.86 526 45 C527.36125 44.236875 528.7225 43.47375 530.125 42.6875 C542.0662865 36.78391927 554.66699422 36.54476211 567.6875 36.4375 C590.66533497 36.28899905 590.66533497 36.28899905 610 25 C610 24.67 610 24.34 610 24 C581.29 24 552.58 24 523 24 Z M367 83 C365.67008157 84.5056252 364.36175608 86.03033685 363.0625 87.5625 C359.11263179 92.02509149 355.04825548 95.38173039 350.06640625 98.625 C347.90005408 99.96863119 347.90005408 99.96863119 346 102 C346.845625 102.28101563 347.69125 102.56203125 348.5625 102.8515625 C352.04570018 104.01526801 355.5275756 105.17945037 359 106.375 C360.7634375 106.97441406 360.7634375 106.97441406 362.5625 107.5859375 C366.15008432 109.06173923 368.86207039 110.75178824 372 113 C372.73974749 102.52024391 370.50963452 93.08335297 368 83 C367.67 83 367.34 83 367 83 Z M395 84 C390.94750319 93.21022003 389.83421463 102.98911414 390 113 C391.03898437 112.44570313 392.07796875 111.89140625 393.1484375 111.3203125 C406.69444008 104.23771151 406.69444008 104.23771151 414.27734375 103.3515625 C415.13005859 103.17753906 415.13005859 103.17753906 416 103 C416.33 102.34 416.66 101.68 417 101 C416.2265625 100.5875 415.453125 100.175 414.65625 99.75 C407.7204056 95.9043833 402.28739646 91.89748067 397 86 C396.34 85.34 395.68 84.68 395 84 Z " fill="#9D5A3F" transform="translate(122,607)"/>
<path d="M0 0 C1.34327177 0.00192659 2.68654367 0.00376679 4.02981567 0.00552368 C24.78630778 0.04490502 45.35240379 0.65437983 65.97790527 3.0625 C68.19450891 3.32059337 70.41206672 3.56896445 72.62988281 3.81640625 C111.64687683 8.22472046 254.04569267 27.23319267 280.125 53.3125 C280.16563832 54.97867115 280.167721 56.64638095 280.125 58.3125 C272.12137091 58.69106324 265.21800388 57.6763544 257.5 55.625 C255.30304618 55.07039063 253.10509445 54.51972182 250.90625 53.97265625 C249.22982422 53.5552417 249.22982422 53.5552417 247.51953125 53.12939453 C233.24815444 49.69498524 218.73444138 46.81538512 204.125 45.3125 C203.04734375 45.20164063 201.9696875 45.09078125 200.859375 44.9765625 C182.50607408 43.33629165 162.63578383 42.86778238 146.0625 52 C143.21328909 55.40067108 142.8769362 59.06492147 142.125 63.3125 C137.71892265 84.58321823 137.71892265 84.58321823 129.125 90.3125 C124.2359958 90.87353327 122.12418552 90.87807671 117.8125 88.4375 C111.32402838 82.15840427 111.3950269 70.71658817 110.5625 62.3125 C110.34001082 60.08252277 110.10993391 57.85328527 109.87109375 55.625 C109.72692017 54.16513672 109.72692017 54.16513672 109.57983398 52.67578125 C109.3195357 50.13321731 109.3195357 50.13321731 107.125 48.3125 C106.58230469 48.66183594 106.03960938 49.01117188 105.48046875 49.37109375 C104.76503906 49.82613281 104.04960938 50.28117187 103.3125 50.75 C102.60480469 51.20246094 101.89710938 51.65492188 101.16796875 52.12109375 C96.4150795 54.89285517 91.47805372 55.03069441 86.125 54.3125 C81.25091408 51.42415279 79.15116767 48.04022457 76.984375 42.984375 C76.23485221 41.12115889 76.23485221 41.12115889 74.125 40.3125 C65.51468703 39.88569569 59.08388833 43.9173159 52.73828125 49.359375 C48.03688287 53.86122336 44.37729241 58.6930375 40.7421875 64.0703125 C37.83883059 68.09573971 35.18282603 70.92665762 30.125 71.875 C25.3139998 70.97293746 22.44328782 69.13908287 19.5546875 65.13671875 C16.97472881 60.96859453 14.87310517 56.80196319 13.0625 52.25 C12.21197985 50.06979033 12.21197985 50.06979033 11.125 48.3125 C8.5162295 47.1011547 8.5162295 47.1011547 6.125 47.3125 C-1.22846959 61.16834315 -1.81101689 75.71301357 -2.67773438 91.05566406 C-2.95990987 95.71435349 -3.35364859 100.35571134 -3.8125 105 C-3.87526123 105.73452393 -3.93802246 106.46904785 -4.00268555 107.22583008 C-4.56595662 112.79696341 -5.64974032 118.57326545 -9.25756836 123.0144043 C-10.875 124.3125 -10.875 124.3125 -14.375 124.75 C-17.875 124.3125 -17.875 124.3125 -19.57543945 122.63638306 C-21.1800391 119.76702699 -21.21991378 117.97056928 -21.16796875 114.69287109 C-21.15805908 113.56424652 -21.14814941 112.43562195 -21.13793945 111.27279663 C-21.11304443 110.05613312 -21.08814941 108.8394696 -21.0625 107.5859375 C-21.04546021 105.69894638 -21.04546021 105.69894638 -21.02807617 103.77383423 C-20.98521673 99.06640265 -20.91587563 94.35964416 -20.84387207 89.65258789 C-20.77474834 85.04711535 -20.7289023 80.44176016 -20.6875 75.8359375 C-20.66260498 74.63141937 -20.63770996 73.42690125 -20.61206055 72.18588257 C-20.55025548 65.02886813 -21.32951962 59.02069218 -23.875 52.3125 C-27.84560839 55.71965177 -29.56015515 59.47560584 -31.6875 64.125 C-37.32158657 75.82899521 -37.32158657 75.82899521 -42.875 79.3125 C-46.4375 80.5 -46.4375 80.5 -49.875 80.3125 C-53.125 78.375 -53.125 78.375 -55.875 76.3125 C-56.865 76.3125 -57.855 76.3125 -58.875 76.3125 C-59.95486335 79.55209004 -60.03152123 82.00580656 -60.0859375 85.4140625 C-60.11429687 86.62707031 -60.14265625 87.84007812 -60.171875 89.08984375 C-60.22347964 91.63137209 -60.26788812 94.17305793 -60.3046875 96.71484375 C-60.51026655 104.82665037 -60.92037333 112.17602267 -65.75 118.9375 C-67.875 120.3125 -67.875 120.3125 -70.375 120.375 C-72.875 119.3125 -72.875 119.3125 -74.8125 116.875 C-77.26918554 113.82275433 -79.13648479 113.2471288 -82.875 112.3125 C-85.89255377 115.06765779 -86.79861945 117.05306966 -87.05078125 121.2109375 C-87.09589844 122.35820312 -87.14101563 123.50546875 -87.1875 124.6875 C-87.73673393 132.71796574 -88.50797888 142.79256031 -94.75 148.625 C-98.32503856 150.55552082 -99.88675179 151.04503539 -103.875 150.3125 C-109.39779558 148.02720528 -111.804971 145.79688366 -114.1640625 140.3125 C-117.33022946 131.40548085 -115.89776516 121.39325395 -114.875 112.1875 C-112.64179646 93.87292895 -112.64179646 93.87292895 -116.875 76.3125 C-117.865 75.9825 -118.855 75.6525 -119.875 75.3125 C-129.19717287 84.89362211 -131.30073265 99.08036538 -131.14453125 111.98828125 C-130.83232213 118.59270499 -129.86320176 125.1554871 -128.94262695 131.69775391 C-127.51300071 142.04706008 -126.50564284 152.24765711 -131.75 161.6875 C-134.54693992 165.14254343 -136.6631562 166.90855207 -140.875 168.3125 C-145.81047304 168.8306822 -149.75329589 168.82236551 -154.3125 166.75 C-159.14524668 162.15299706 -160.7503828 156.10519734 -160.96484375 149.578125 C-160.58377379 142.03489394 -158.82906925 135.8798847 -156.18066406 128.90454102 C-151.96699982 117.54823301 -150.4126794 105.37668165 -149.875 93.3125 C-149.813125 91.92417969 -149.813125 91.92417969 -149.75 90.5078125 C-149.54194168 80.9111225 -150.89768671 71.44157233 -152.19824219 61.95458984 C-155.24144047 39.67892675 -155.24144047 39.67892675 -147.76171875 29.41015625 C-123.40782534 2.33346731 -66.90614527 2.56005789 -33.59664917 0.50280762 C-22.40667432 -0.06939501 -11.20154132 -0.03212839 0 0 Z " fill="#9D5A3F" transform="translate(468.875,207.6875)"/>
<path d="M0 0 C4.00018254 3.25566907 7.34004464 6.8069271 10.53515625 10.8515625 C13.7816083 12.66690276 15.70882363 11.7163404 19.2202301 10.86334229 C23.79754882 9.55960923 28.19552095 7.83945766 32.62109375 6.09765625 C33.6278566 5.70807236 34.63461945 5.31848846 35.67189026 4.917099 C38.86698259 3.6799511 42.05870942 2.43441851 45.25 1.1875 C48.43806252 -0.05491915 51.62684669 -1.29537289 54.81739807 -2.53138733 C56.79462729 -3.29766035 58.77042719 -4.067636 60.74449158 -4.84202576 C62.11124779 -5.3725631 62.11124779 -5.3725631 63.50561523 -5.91381836 C64.29121323 -6.22089218 65.07681122 -6.527966 65.88621521 -6.84434509 C70.14326598 -8.34370369 74.48947041 -9.57809112 78.8125 -10.875 C79.1425 -1.305 79.4725 8.265 79.8125 18.125 C82.1225 15.155 84.4325 12.185 86.8125 9.125 C98.39208421 -3.87663841 116.20958302 -14.46865048 133.7734375 -16.16015625 C138.83630062 -16.31624989 142.89228326 -16.4388334 146.8125 -12.875 C150.47387756 -8.71884169 151.46259994 -5.44946077 151.19921875 -0.0546875 C150.40570421 4.41784902 148.13052437 7.18465186 144.50952148 9.76806641 C141.50833544 11.27803219 139.68330668 11.48112036 136.34765625 11.4609375 C135.30681885 11.47012207 134.26598145 11.47930664 133.19360352 11.48876953 C132.09846436 11.49247559 131.0033252 11.49618164 129.875 11.5 C115.6291196 11.82504771 103.78704718 14.32840064 92.8125 24.125 C81.67971137 36.03000518 79.49390456 47.95262326 79.546875 63.82421875 C79.54552334 65.26463384 79.54357867 66.70504848 79.54107666 68.14546204 C79.53813666 71.16383205 79.54237846 74.18208333 79.55175781 77.20043945 C79.56301999 81.0036362 79.55648185 84.80654907 79.54487705 88.60973549 C78.60857794 118.86846353 78.60857794 118.86846353 84.8125 148.125 C85.1425 148.455 85.4725 148.785 85.8125 149.125 C85.8125 151.765 85.8125 154.405 85.8125 157.125 C69.3125 157.125 52.8125 157.125 35.8125 157.125 C35.8125 149.49699428 35.81556231 149.00360854 38.8125 143.125 C41.48517626 132.46856006 41.96314956 121.39178913 41.95776367 110.45288086 C41.96112228 109.44986938 41.9644809 108.44685791 41.96794128 107.41345215 C41.9773469 104.13890303 41.97938814 100.86440548 41.98046875 97.58984375 C41.98368515 95.30107096 41.98704951 93.01229837 41.99055481 90.723526 C41.99651749 85.94857302 41.99839732 81.17363808 41.99780273 76.39868164 C41.99770048 70.26838262 42.01142981 64.1381978 42.02857494 58.00792599 C42.03965871 53.29233767 42.04172318 48.57677746 42.04119301 43.86117744 C42.04237563 41.599255 42.04681313 39.33733189 42.05452538 37.07542229 C42.06426558 33.92772051 42.06147258 30.78027378 42.05541992 27.63256836 C42.06103943 26.69391434 42.06665894 25.75526031 42.07244873 24.78816223 C42.06825424 23.93465179 42.06405975 23.08114136 42.05973816 22.20176697 C42.06028293 21.45834014 42.06082769 20.71491331 42.06138897 19.9489584 C41.96571252 17.87487149 41.96571252 17.87487149 39.8125 16.125 C33.8725 18.435 27.9325 20.745 21.8125 23.125 C23.38170121 27.04800303 25.03776872 30.88985519 26.75 34.75 C36.523545 57.27151837 36.14229362 81.36251005 27.41625977 104.20654297 C18.43812257 126.14715025 1.22951739 141.69174928 -20.15771484 151.28369141 C-42.76806169 160.65526408 -67.96203819 159.26014615 -90.375 150.4375 C-112.61229379 140.3021348 -128.02834447 122.61818577 -136.8984375 100.18359375 C-140.28529515 90.1313791 -141.7228186 80.39983522 -141.625 69.8125 C-141.61597656 68.63187988 -141.60695312 67.45125977 -141.59765625 66.23486328 C-141.12966101 42.54585435 -131.31830851 22.75889687 -115.1875 5.75 C-84.13729757 -23.69840628 -33.81136778 -26.3378185 0 0 Z M-77.3125 -2 C-80.23685416 0.7788639 -81.97390973 3.44401686 -82.48828125 7.4921875 C-82.52456917 15.25780337 -80.61777385 20.40119784 -75.1875 26.125 C-65.9448261 32.97289115 -55.83036461 35.07837189 -44.4296875 33.65625 C-36.44955616 32.14870979 -28.80716971 29.92029783 -21.1875 27.125 C-26.39217641 13.25393216 -37.45420547 1.57420056 -50.8125 -4.6875 C-59.40626724 -7.71123292 -69.92560099 -8.10423663 -77.3125 -2 Z M-93.1875 17.125 C-96.11603795 24.35692388 -98.94076535 31.39814458 -100.1875 39.125 C-100.29835937 39.78113281 -100.40921875 40.43726563 -100.5234375 41.11328125 C-104.5136748 69.74592999 -97.28594154 101.62405144 -79.953125 124.890625 C-79.37046875 125.62796875 -78.7878125 126.3653125 -78.1875 127.125 C-77.58421875 127.90359375 -76.9809375 128.6821875 -76.359375 129.484375 C-69.08374923 138.29793792 -58.95753599 145.36073416 -47.375 146.5 C-37.77309522 146.02931839 -29.9836803 142.95979496 -23.1875 136.125 C-7.15080324 117.1460867 -5.51209201 92.9234089 -7.1875 69.125 C-8.32792318 59.12052489 -10.14588803 46.96219816 -15.1875 38.125 C-19.16170497 36.80026501 -21.65579358 38.11000362 -25.4375 39.4375 C-41.43557165 44.70236619 -58.58374976 46.63791678 -74.1875 39.125 C-83.67705119 34.20004305 -88.43342883 26.92729696 -92.1875 17.125 C-92.5175 17.125 -92.8475 17.125 -93.1875 17.125 Z " fill="#9D5A3F" transform="translate(330.1875,413.875)"/>
<path d="M0 0 C16.5 0 33 0 50 0 C50 7.62800572 49.99693769 8.12139146 47 14 C42.9783062 29.57117345 43.82350804 46.20304822 43.796875 62.140625 C43.79404762 63.28692131 43.79122025 64.43321762 43.78830719 65.61425018 C43.77340286 71.66764042 43.76411524 77.72100732 43.75976562 83.77441406 C43.75426004 90.00714555 43.73016304 96.23966092 43.70179367 102.47232437 C43.68314617 107.28856026 43.6779608 112.10474394 43.67642975 116.92101288 C43.67341302 119.2190241 43.66541781 121.51703462 43.65224457 123.81501007 C43.63512226 127.02820843 43.63707834 130.24087565 43.64355469 133.45410156 C43.6343399 134.39249878 43.62512512 135.330896 43.6156311 136.29772949 C43.65772622 142.99077748 44.44935155 149.66453664 48.625 155.125 C52.61723112 156.59582199 55.96518508 156.25599884 60 155 C63.37769652 153.05723399 66.14439827 150.63817013 69 148 C70.18916016 146.91332031 70.18916016 146.91332031 71.40234375 145.8046875 C78.37295177 139.13140399 84.2920271 131.75258905 90 124 C90.42812988 123.4215332 90.85625977 122.84306641 91.29736328 122.24707031 C96.77123409 114.74498188 101.23403642 106.93486632 105.25 98.5625 C105.63808838 97.75353271 106.02617676 96.94456543 106.42602539 96.11108398 C107.6710946 93.42860494 108.83505238 90.71821112 110 88 C110.53165771 86.86087158 111.06331543 85.72174316 111.61108398 84.5480957 C116.26730931 74.0345629 116.84268378 64.33197765 116.61743164 52.92797852 C116.56262464 50.06900165 116.55590549 47.21296448 116.55664062 44.35351562 C116.5070808 35.59804042 116.11930163 27.01353363 114.65234375 18.37109375 C114.47911339 17.33251976 114.47911339 17.33251976 114.30238342 16.27296448 C113.74666324 13.38331505 113.2418297 11.30516869 111.39672852 8.97680664 C110 7 110 7 110 0 C126.83 0 143.66 0 161 0 C161 6.70986527 160.78768202 7.64581742 158 13 C157.32141119 15.79362913 156.77069093 18.45928708 156.33740234 21.2890625 C156.14790544 22.5211998 156.14790544 22.5211998 155.95458031 23.77822876 C154.40617766 34.93133645 154.56759677 46.13811031 154.6015625 57.375 C154.5995367 59.76204517 154.59662107 62.14908974 154.59286499 64.53613281 C154.58847918 69.49452716 154.59475997 74.4527577 154.60888672 79.41113281 C154.62612681 85.77211245 154.6160209 92.1327164 154.59816933 98.49368286 C154.58735716 103.40233221 154.59076343 108.31089148 154.5985527 113.21954346 C154.6005541 115.56715947 154.59809757 117.91478365 154.59111404 120.26239014 C154.58352576 123.52410854 154.59506042 126.78520332 154.61181641 130.046875 C154.60270737 131.50074112 154.60270737 131.50074112 154.59341431 132.98397827 C154.60610352 134.31207016 154.60610352 134.31207016 154.61904907 135.66699219 C154.62018015 136.43597839 154.62131123 137.2049646 154.62247658 137.99725342 C155.09413654 140.49939057 156.07519899 141.39726628 158 143 C161.465 142.01 161.465 142.01 165 141 C166.65 142.65 168.3 144.3 170 146 C168.02677121 149.68571355 166.05122171 153.37017032 164.07348633 157.0534668 C163.40064156 158.30735307 162.72843866 159.561584 162.05688477 160.81616211 C161.09298479 162.61662767 160.12680337 164.41585195 159.16015625 166.21484375 C158.57886963 167.29886475 157.99758301 168.38288574 157.39868164 169.49975586 C156 172 156 172 155 173 C144.29968724 173.67938494 135.24664401 170.99858869 127 164 C118.61301939 155.15521477 116.81477125 145.1244885 117 133.3125 C117.08511535 123.51166104 116.61324112 113.77900571 116 104 C115.55011719 104.8971875 115.10023438 105.794375 114.63671875 106.71875 C100.72281282 133.93054323 80.15166071 161.35328876 50.91796875 172.81640625 C42.09394797 175.47290093 32.10614892 174.96805014 23.640625 171.453125 C15.34345016 166.88722405 9.92357303 160.97987466 7 152 C6.46309473 148.2261006 6.45517533 144.51460637 6.48583984 140.70727539 C6.47871475 139.61321381 6.47158966 138.51915222 6.46424866 137.39193726 C6.44503518 133.79365742 6.45323923 130.1959701 6.4609375 126.59765625 C6.45101948 124.07530367 6.43907406 121.55295832 6.42520142 119.03062439 C6.39616478 113.07058939 6.38325648 107.11067509 6.37962496 101.15058368 C6.37258538 89.88638934 6.33671373 78.62235859 6.2861824 67.35827446 C6.2737374 63.68614854 6.27434396 60.0141987 6.27645874 56.34205627 C6.7954382 31.03716334 6.7954382 31.03716334 0 7 C0 4.69 0 2.38 0 0 Z " fill="#9D5A3F" transform="translate(786,398)"/>
<path d="M0 0 C85.47 0 170.94 0 259 0 C264.445 9.9 264.445 9.9 270 20 C266.33444727 23.66555273 266.33444727 23.66555273 263 24 C261.12555298 23.06172461 259.25462034 22.11527658 257.40869141 21.12207031 C252.7394725 18.9469507 247.69101421 18.00821053 242.6875 16.875 C241.62337891 16.62363281 240.55925781 16.37226563 239.46289062 16.11328125 C236.31275537 15.37908255 233.16621921 14.66197623 230 14 C229.24278152 13.82729584 228.48556305 13.65459167 227.70539856 13.47665405 C219.63536229 11.78757124 211.69040322 11.74238279 203.48828125 11.8046875 C202.02426855 11.80842703 200.56025331 11.81126955 199.09623718 11.81326294 C195.28061771 11.82082553 191.46515541 11.84040871 187.64959717 11.8626709 C183.7410291 11.88329012 179.83243514 11.8922987 175.92382812 11.90234375 C168.28248116 11.92366317 160.64126277 11.95770758 153 12 C151.3341758 17.2764152 150.43786166 22.33305819 149.89117432 27.83294678 C149.80691956 28.66362097 149.7226648 29.49429515 149.63585687 30.35014129 C148.83632817 38.79750539 148.71743436 47.1943014 148.74121094 55.67285156 C148.73848999 57.34274954 148.73492297 59.01264632 148.73059082 60.68254089 C148.72159264 65.1559887 148.72495901 69.62934266 148.73134899 74.10279179 C148.73647846 78.8285195 148.73169822 83.55424017 148.72857666 88.27996826 C148.72495555 96.21449192 148.72968556 104.14897814 148.73925781 112.08349609 C148.75012367 121.19421469 148.74662281 130.3048436 148.735605 139.41556001 C148.72646078 147.2990476 148.7252818 155.18250855 148.73048234 163.06599975 C148.73356514 167.74736606 148.73411549 172.42869057 148.72740936 177.11005402 C146.31049176 212.5704389 146.31049176 212.5704389 154.625 245.625 C156 248 156 248 156 255 C139.17 255 122.34 255 105 255 C105 247.28467153 105 247.28467153 106.875 244 C112.46420703 232.37931421 111.29010858 217.61924143 111.25878906 205.01782227 C111.26150595 203.15981917 111.26507077 201.30181715 111.26940918 199.44381714 C111.27845314 194.44169717 111.27502206 189.43966059 111.26865101 184.43753934 C111.26354853 179.17466097 111.26829424 173.91178921 111.27142334 168.64891052 C111.27505101 159.81369764 111.2702958 150.97851832 111.26074219 142.14331055 C111.24986335 131.96576546 111.25338395 121.78830055 111.264395 111.61075741 C111.27350619 102.83404979 111.27473439 94.05736615 111.26951766 85.28065532 C111.26641852 80.05563129 111.26593145 74.83064479 111.27259064 69.60562325 C111.27841941 64.68971045 111.27426732 59.7738998 111.26280212 54.85799789 C111.2601847 53.06670615 111.26086985 51.27540562 111.26532745 49.48411751 C111.29485991 36.39781012 110.20052745 23.91754079 108 11 C99.84334659 11.01511263 91.68742917 11.05773405 83.53112221 11.13209057 C79.74056281 11.16585482 75.95038462 11.19138919 72.15966797 11.19555664 C34.87885668 10.77662978 34.87885668 10.77662978 0.34375 22.6328125 C-2 24 -2 24 -4.6875 23.75 C-7 23 -7 23 -9 22 C-8 16 -8 16 0 0 Z " fill="#9D5A3F" transform="translate(9,315)"/>
<path d="M0 0 C3.46040245 2.87624295 6.75495661 5.88408463 10 9 C10.68320312 9.64324219 11.36640625 10.28648437 12.0703125 10.94921875 C17.37844263 16.06856601 20.46194758 20.20323955 21.0625 27.72265625 C20.92564419 32.70933993 19.04396132 36.00823675 15.5 39.375 C11.30327537 42.10287101 6.91290256 42.89850064 2 42 C-4.81759571 39.14200225 -6.89520167 35.42043585 -9.9375 28.875 C-17.05104147 14.52877134 -25.85311204 3.23392327 -41 -3 C-50.51203737 -6.03697579 -62.6956205 -4.40907628 -71.5 0.0625 C-85.87225801 8.74679724 -95.0399312 22.11652469 -99.25 38.25 C-103.61951316 61.52606047 -98.57447654 84.07402407 -86 104 C-82.14300134 109.44391877 -77.89683749 114.4614677 -73 119 C-72.37867188 119.60328125 -71.75734375 120.2065625 -71.1171875 120.828125 C-57.89245624 133.24704826 -40.72221703 140.50004307 -22.48046875 140.2734375 C-7.69514561 139.11185207 4.11251908 133.7093549 14.40625 122.8671875 C16.24076846 120.71792322 17.73536691 118.52926618 19 116 C20.6045556 116.14148989 22.20863767 116.28835686 23.8125 116.4375 C25.15248047 116.55931641 25.15248047 116.55931641 26.51953125 116.68359375 C29 117 29 117 32 118 C30.54044134 122.68275071 27.80784447 125.81559169 24.5 129.3125 C23.95883545 129.88645508 23.4176709 130.46041016 22.86010742 131.05175781 C4.08909593 150.6422593 -19.35801772 158.39046848 -46 160 C-44.576875 161.11375 -44.576875 161.11375 -43.125 162.25 C-39.7389624 164.89994247 -38.22348975 167.27964865 -37.6640625 171.5859375 C-37.58025052 177.57011297 -37.74387607 181.40786629 -42 186 C-46.42084941 189.33819241 -49.80588157 191.12460651 -55.34375 191.1328125 C-56.17777344 191.13410156 -57.01179687 191.13539063 -57.87109375 191.13671875 C-58.73863281 191.13285156 -59.60617187 191.12898437 -60.5 191.125 C-61.36753906 191.12886719 -62.23507812 191.13273438 -63.12890625 191.13671875 C-63.96292969 191.13542969 -64.79695312 191.13414062 -65.65625 191.1328125 C-66.41744141 191.13168457 -67.17863281 191.13055664 -67.96289062 191.12939453 C-70 191 -70 191 -73 190 C-72.88487847 188.27014758 -72.75744323 186.54111249 -72.625 184.8125 C-72.55539062 183.84957031 -72.48578125 182.88664063 -72.4140625 181.89453125 C-72 179 -72 179 -70 174 C-66.37 174 -62.74 174 -59 174 C-61.4440625 173.566875 -61.4440625 173.566875 -63.9375 173.125 C-66.71484375 172.6328125 -66.71484375 172.6328125 -69 172 C-70 170 -70 170 -69.00390625 166.9609375 C-68.52824219 165.77757812 -68.05257812 164.59421875 -67.5625 163.375 C-67.08941406 162.18648437 -66.61632812 160.99796875 -66.12890625 159.7734375 C-65.75636719 158.85820313 -65.38382813 157.94296875 -65 157 C-66.07314453 156.87044922 -66.07314453 156.87044922 -67.16796875 156.73828125 C-88.9127025 153.67207688 -108.02049229 141.75830893 -122 125 C-136.42385884 105.32388893 -142.89131453 81.08879156 -139.50390625 56.8828125 C-135.05498517 32.70280073 -122.05937023 13.14239342 -102.11328125 -1.0546875 C-71.29995542 -21.14209548 -29.82789648 -22.48191927 0 0 Z " fill="#9D5A3F" transform="translate(747,413)"/>
<path d="M0 0 C1.15016602 0.14453613 2.30033203 0.28907227 3.48535156 0.43798828 C20.19789144 2.60691951 36.63642956 5.9939695 53 10 C53.84981445 10.20737793 54.69962891 10.41475586 55.57519531 10.62841797 C73.36633802 15.08920344 93.23960792 23.4096592 104 39 C106.98788027 44.12504463 107.48024688 48.8289898 106.62890625 54.671875 C105.41751727 59.15627149 102.93299959 61.80721652 99.03125 64.21484375 C92.84655791 67.45719166 87.40953817 68.24937769 80.4375 68.375 C79.34405273 68.43107422 79.34405273 68.43107422 78.22851562 68.48828125 C62.93474973 68.71635729 47.16843634 61.89472919 32.82254028 57.21099854 C-18.38472675 40.5410772 -70.22653215 27.78980805 -124 23 C-125.05719238 22.90428711 -126.11438477 22.80857422 -127.20361328 22.70996094 C-139.74206769 21.72273679 -152.30474047 21.75637366 -164.875 21.75 C-166.07319366 21.74932526 -167.27138733 21.74865051 -168.50588989 21.74795532 C-195.13945813 21.77171487 -220.97321431 23.80329695 -247.22241211 28.3737793 C-248.43292236 28.58429932 -249.64343262 28.79481934 -250.890625 29.01171875 C-251.95313477 29.20209717 -253.01564453 29.39247559 -254.11035156 29.58862305 C-256.78996548 29.97009901 -259.29867855 30.07877297 -262 30 C-259.42463392 27.42463392 -257.26297893 26.99064108 -253.7734375 25.93359375 C-253.13101608 25.73888992 -252.48859467 25.5441861 -251.82670593 25.34358215 C-249.67894713 24.69829696 -247.52766798 24.06620602 -245.375 23.4375 C-244.62781708 23.21823853 -243.88063416 22.99897705 -243.11080933 22.77307129 C-201.91671266 10.75742416 -159.65183722 3.31917339 -117 -1 C-115.90494141 -1.11859375 -114.80988281 -1.2371875 -113.68164062 -1.359375 C-76.32098946 -5.30939979 -37.26422775 -4.78440414 0 0 Z " fill="#9D5A3F" transform="translate(634,164)"/>
<path d="M0 0 C0 15.84 0 31.68 0 48 C16.83 48 33.66 48 51 48 C51 51.63 51 55.26 51 59 C34.17 59 17.34 59 0 59 C0.08559844 75.89038179 0.1792717 92.78065412 0.28752708 109.67090321 C0.33754136 117.5142251 0.38398507 125.35753712 0.421875 133.20092773 C0.45492849 140.04124392 0.49483233 146.88148092 0.54279006 153.72170943 C0.56792302 157.33990358 0.58974238 160.95804609 0.60334396 164.57630348 C0.61869723 168.62626044 0.64935166 172.67596883 0.68115234 176.72583008 C0.68331253 177.91122879 0.68547272 179.0966275 0.68769836 180.31794739 C0.74692709 194.34164119 0.74692709 194.34164119 6 207 C8.546468 208.87879739 8.546468 208.87879739 12 209 C15.48129776 207.9642868 18.70501273 206.51421962 22 205 C22.99 204.67 23.98 204.34 25 204 C26.98 206.31 28.96 208.62 31 211 C28.2120377 216.5759246 24.72928633 217.90122544 19 220 C6.43593867 223.11905019 -4.36876365 222.30170453 -15.53515625 215.62109375 C-25.47159394 209.08603568 -32.3623057 199.76817456 -35 188 C-36.15019264 181.65980685 -36.13425223 175.4376952 -36.11352539 169.00610352 C-36.11367142 167.81514572 -36.11381744 166.62418793 -36.1139679 165.3971405 C-36.11339278 162.14970726 -36.10839571 158.90231774 -36.10139394 155.65489316 C-36.09512028 152.25430064 -36.09455343 148.85370716 -36.09336853 145.45310974 C-36.09026701 139.02179499 -36.08206958 132.59049735 -36.07201904 126.15919012 C-36.0608212 118.83389747 -36.05533822 111.50860399 -36.05032361 104.18330491 C-36.03988593 89.12219219 -36.02155518 74.06110168 -36 59 C-47.22 59 -58.44 59 -70 59 C-70 55.37 -70 51.74 -70 48 C-58.78 48 -47.56 48 -36 48 C-36.66213525 38.94119467 -36.66213525 38.94119467 -38 34 C-38.77085937 33.81824219 -39.54171875 33.63648438 -40.3359375 33.44921875 C-41.84027344 33.07216797 -41.84027344 33.07216797 -43.375 32.6875 C-44.37273438 32.44386719 -45.37046875 32.20023437 -46.3984375 31.94921875 C-49 31 -49 31 -51 28 C-50.54716981 21.54716981 -50.54716981 21.54716981 -48 19 C-46.08384599 18.67505047 -44.16494049 18.36074881 -42.23706055 18.11474609 C-27.27053215 16.19964923 -15.45770683 10.60020416 -3.37890625 1.72265625 C-1 0 -1 0 0 0 Z " fill="#9D5A3F" transform="translate(562,350)"/>
<path d="M0 0 C-0.30078125 1.859375 -0.30078125 1.859375 -1 4 C-4.62525457 6.55900323 -8.3841919 8.65665376 -12.2578125 10.81640625 C-13.44325556 11.48079538 -14.62813788 12.14618587 -15.8125 12.8125 C-16.40973877 13.14797852 -17.00697754 13.48345703 -17.62231445 13.82910156 C-23.40689069 17.13190045 -28.7141521 20.9439208 -34 25 C-32.66126947 28.04495571 -31.252393 29.83576821 -28.75 32 C-19.71726444 40.78758825 -16.87615793 52.59452696 -16.625 64.75 C-16.65102079 78.68087979 -21.7720707 90.66593371 -31.25 100.8125 C-43.01374735 111.85681157 -59.88673075 114.65969973 -75.58422852 114.39990234 C-89.75432282 113.84213503 -101.69075435 109.54226216 -111.49609375 98.93359375 C-117.19262219 91.60948575 -118.78618418 85.18961957 -118 76 C-115.1470465 76.34581254 -114.2014485 76.74939422 -112.3671875 79.03125 C-111.87476563 79.8459375 -111.38234375 80.660625 -110.875 81.5 C-108.99501315 84.84650002 -108.99501315 84.84650002 -106 87 C-98.59834035 87.77179699 -92.29630738 87.13617073 -86 83 C-79.77430162 77.86413941 -77.65453102 70.96119235 -76.62353516 63.14648438 C-76.28641809 59.2017511 -76.05383083 55.25515129 -75.828125 51.30273438 C-75.42987404 45.5395835 -74.65235755 41.15335775 -72 36 C-77.93966379 36.92502961 -83.02819936 38.17635246 -88.30859375 41.09765625 C-90 42 -90 42 -93 43 C-94.14209817 44.78228936 -94.14209817 44.78228936 -95 47 C-95.37125 47.7425 -95.7425 48.485 -96.125 49.25 C-97.71412102 54.24438033 -97.55850544 58.38653985 -95.875 63.25 C-93.21651394 67.14911289 -90.12618021 69.32857467 -85.625 70.75 C-85.08875 70.8325 -84.5525 70.915 -84 71 C-84.3125 72.9375 -84.3125 72.9375 -85 75 C-89.58071238 76.52690413 -93.40693241 76.53102253 -98 75 C-104.07327051 70.95115299 -108.136272 66.10879108 -110 59 C-111.06584797 49.23385814 -109.42124196 41.65820786 -104.375 33.3125 C-93.56699248 22.78891373 -79.92078099 17.88062516 -65 17 C-54.32021269 17.2181892 -54.32021269 17.2181892 -49.84375 18.7265625 C-47.92302344 19.22716154 -47.92302344 19.22716154 -46.3515625 17.84765625 C-45.49691406 16.96400391 -45.49691406 16.96400391 -44.625 16.0625 C-32.09954137 4.42173919 -16.95390879 -0.90287088 0 0 Z " fill="#9D593F" transform="translate(664,0)"/>
<path d="M0 0 C-0.33 0.66 -0.66 1.32 -1 2 C-1.86351074 1.80889648 -2.72702148 1.61779297 -3.61669922 1.42089844 C-39.03410389 -6.37252491 -74.65012611 -12.21320619 -111 -13 C-111.97839844 -13.02191406 -112.95679688 -13.04382813 -113.96484375 -13.06640625 C-160.65526859 -13.94075878 -207.92479737 -9.01069241 -253 3.4375 C-261.68161771 5.8299275 -270.14843416 8.00852394 -278.9375 4.8125 C-283.88026926 1.88718758 -286.48768986 -0.16171066 -288.0625 -5.8125 C-288.40689587 -11.53808137 -286.06795958 -15.60258607 -282.40625 -19.84765625 C-231.01233761 -69.39051671 -101.32175813 -36.62346151 0 0 Z " fill="#9D5A3F" transform="translate(698,157)"/>
<path d="M0 0 C3.14713792 0.69936398 5.25306636 1.66778604 7.8125 3.625 C7.8125 4.285 7.8125 4.945 7.8125 5.625 C6.76320313 6.16898438 5.71390625 6.71296875 4.6328125 7.2734375 C-13.74205829 17.82214534 -29.7104845 48.09473798 -39.1875 66.625 C-32.29510522 61.80446738 -25.78461181 56.7206432 -19.42895508 51.21948242 C-15.37199989 47.71724995 -15.37199989 47.71724995 -13.1875 46.625 C-12.5275 46.955 -11.8675 47.285 -11.1875 47.625 C-10.91550781 47.04105469 -10.64351562 46.45710937 -10.36328125 45.85546875 C-8.07312485 41.51101923 -5.13584313 37.52789072 -0.625 35.4375 C2.91512313 35.70981716 4.4096663 37.08486152 6.8125 39.625 C6.8125 40.945 6.8125 42.265 6.8125 43.625 C5.15029419 44.63239746 3.48229326 45.63022955 1.8125 46.625 C-3.99183426 52.07837452 -7.64418665 58.56433164 -11.1875 65.625 C-4.20244478 61.47939812 1.72456079 56.34691154 7.67016602 50.85668945 C8.60300415 50.01690552 8.60300415 50.01690552 9.5546875 49.16015625 C10.1101123 48.648479 10.66553711 48.13680176 11.23779297 47.60961914 C11.75744629 47.28469482 12.27709961 46.95977051 12.8125 46.625 C13.8025 46.955 14.7925 47.285 15.8125 47.625 C17.83135102 46.35579946 17.83135102 46.35579946 19.875 44.5 C28.83944326 37.19725842 39.07777563 32.52624304 50.8125 33.625 C53.8125 34.5 53.8125 34.5 55.8125 35.625 C57.63036908 39.26073816 56.99321726 42.81998675 56.125 46.6875 C54.54199391 50.23041839 52.67965127 52.01270662 49.8125 54.625 C44.88436962 59.24136603 40.80992213 64.05710054 37 69.625 C36.4937207 70.35323975 35.98744141 71.08147949 35.46582031 71.83178711 C30.48227289 79.02929337 25.62412717 86.31175251 20.8125 93.625 C23.91083087 92.26146441 25.84838264 90.73852207 28.125 88.25 C31.40513467 84.84916774 34.61544342 82.7663554 38.8125 80.625 C38.8125 81.615 38.8125 82.605 38.8125 83.625 C36.79296875 85.61328125 36.79296875 85.61328125 34 87.9375 C24.66847479 96.03325334 17.38967433 105.91149479 11.4453125 116.7109375 C9.8125 118.625 9.8125 118.625 7.2421875 119.0390625 C4.8125 118.625 4.8125 118.625 2.8125 116.625 C1.90364579 109.27912332 4.37912462 104.17870752 7.625 97.6875 C8.11476318 96.68420654 8.60452637 95.68091309 9.10913086 94.6472168 C13.07387274 86.70193222 17.59789444 79.25511465 22.59765625 71.92578125 C24.21980459 69.50829387 25.62794425 67.26850012 26.8125 64.625 C25.93207031 65.26308594 25.05164063 65.90117188 24.14453125 66.55859375 C22.97166907 67.39367162 21.79847432 68.22828255 20.625 69.0625 C20.04685547 69.48337891 19.46871094 69.90425781 18.87304688 70.33789062 C15.58986668 72.6565207 12.8890843 74.44837156 8.8125 74.625 C5.9375 72.75 5.9375 72.75 3.8125 69.625 C3.57604776 65.39841621 4.4831007 61.61319791 5.8125 57.625 C5.36261719 58.1096875 4.91273438 58.594375 4.44921875 59.09375 C-9.131005 73.24548617 -9.131005 73.24548617 -17.1875 74.8125 C-20.1875 74.625 -20.1875 74.625 -22.125 73.625 C-23.81987535 70.43464639 -23.59755032 68.19829566 -23.1875 64.625 C-22.05756692 61.82707046 -20.67297811 59.24629453 -19.1875 56.625 C-20.02152344 57.42164063 -20.85554687 58.21828125 -21.71484375 59.0390625 C-38.06728997 74.50943667 -38.06728997 74.50943667 -44.5625 74.75 C-47.63900949 73.43149593 -48.78654198 72.67414393 -50.1875 69.625 C-49.97428027 64.82755605 -48.16559101 60.92519785 -46.1875 56.625 C-46.72117187 57.12128906 -47.25484375 57.61757813 -47.8046875 58.12890625 C-66.05792002 74.77155943 -66.05792002 74.77155943 -73.375 74.5625 C-75.96569004 73.22248791 -76.8959416 72.27609355 -78.1875 69.625 C-78.13450702 66.85346704 -77.69069659 64.36970868 -77.1875 61.625 C-77.6721875 61.98851562 -78.156875 62.35203125 -78.65625 62.7265625 C-80.06729353 63.78484515 -81.4801903 64.8406595 -82.89453125 65.89453125 C-84.38509847 67.01943973 -85.86263597 68.16189972 -87.32421875 69.32421875 C-94.44793397 74.92820806 -94.44793397 74.92820806 -98.1875 74.625 C-101.0625 72.625 -101.0625 72.625 -103.1875 69.625 C-103.90690744 60.8122588 -96.52831867 52.06227813 -91.1875 45.625 C-98.63922649 50.67474569 -105.76359939 55.87379624 -112.375 62 C-113.18457153 62.74878418 -113.18457153 62.74878418 -114.01049805 63.51269531 C-119.55729703 68.7154877 -119.55729703 68.7154877 -122.1875 75.625 C-124.5625 75.3125 -124.5625 75.3125 -127.1875 74.625 C-129.456174 71.22198899 -129.350904 69.6801877 -128.73095703 65.72949219 C-127.85461464 62.33592912 -126.09790547 59.5920933 -124.125 56.75 C-123.5220813 55.84991211 -123.5220813 55.84991211 -122.90698242 54.93164062 C-119.28481372 49.59835118 -115.40000931 44.5068699 -111.1875 39.625 C-110.6409375 38.97144531 -110.094375 38.31789063 -109.53125 37.64453125 C-105.97616137 33.68133295 -105.97616137 33.68133295 -102.5625 33.4375 C-99.49722055 34.97013972 -98.05949987 36.78233354 -96.1875 39.625 C-96.1875 40.285 -96.1875 40.945 -96.1875 41.625 C-97.2084375 41.8725 -97.2084375 41.8725 -98.25 42.125 C-102.58382353 44.33801627 -105.16552936 47.88019489 -108.1875 51.625 C-104.33448888 49.95505087 -101.25374396 47.41073823 -98 44.8125 C-84.01427924 33.88271428 -84.01427924 33.88271428 -77.1875 34.625 C-75.25 36.875 -75.25 36.875 -74.1875 39.625 C-75.60540035 43.75900815 -78.77479443 46.96913695 -81.5 50.3125 C-85.65143153 55.48404392 -89.31043948 60.61655316 -92.1875 66.625 C-85.62192612 62.2825324 -79.56382304 57.54391761 -73.65551758 52.3581543 C-70.94432179 50.00188172 -68.45118461 48.1120821 -65.1875 46.625 C-63.46971039 45.53560307 -61.76218598 44.42993204 -60.0625 43.3125 C-45.72183286 34.19008358 -45.72183286 34.19008358 -36.4140625 33.765625 C-35.67929687 33.71921875 -34.94453125 33.6728125 -34.1875 33.625 C-33.19943359 33.56699219 -33.19943359 33.56699219 -32.19140625 33.5078125 C-28.92930435 32.07070718 -27.40888842 29.12989892 -25.5 26.25 C-24.61610228 24.96810233 -23.72933738 23.68817734 -22.83984375 22.41015625 C-22.39624512 21.77094238 -21.95264648 21.13172852 -21.49560547 20.47314453 C-8.13365176 1.59483368 -8.13365176 1.59483368 0 0 Z M-57.74462891 53.12109375 C-61.51176837 57.04758767 -64.88078001 61.30789335 -68.1875 65.625 C-67.5275 65.955 -66.8675 66.285 -66.1875 66.625 C-61.15836437 63.33407655 -56.15758126 60.00451099 -51.1875 56.625 C-50.59098633 56.21975098 -49.99447266 55.81450195 -49.37988281 55.39697266 C-42.75286008 50.83873354 -37.76803556 46.91394739 -34.1875 39.625 C-34.1875 38.965 -34.1875 38.305 -34.1875 37.625 C-43.25296462 37.625 -51.62983839 47.04880923 -57.74462891 53.12109375 Z M22.8125 53.625 C17.37720241 59.51196958 17.37720241 59.51196958 14.8125 66.625 C19.83994892 64.9821722 23.80338849 62.04235622 28.0625 59 C28.81958252 58.46528076 29.57666504 57.93056152 30.35668945 57.37963867 C34.46731869 54.43855346 38.31433879 51.40895184 42 47.9375 C45.14060705 45.00383218 47.32536953 43.51555779 51.8125 43.625 C52.4725 43.955 53.1325 44.285 53.8125 44.625 C54.49208603 42.22780568 54.49208603 42.22780568 54.8125 39.625 C52.96022679 37.35783357 52.96022679 37.35783357 50.109375 37.31640625 C39.66324628 38.2941837 29.65067591 46.13837638 22.8125 53.625 Z " fill="#9D5A3F" transform="translate(904.1875,956.375)"/>
<path d="M0 0 C2.875 1.375 2.875 1.375 5 3 C5 3.66 5 4.32 5 5 C3.65421875 5.60328125 3.65421875 5.60328125 2.28125 6.21875 C-16.79484954 16.57434689 -32.31634519 47.08214271 -42 66 C-34.80241079 61.00575442 -28.14134255 55.69050315 -21.68505859 49.77441406 C-20.18735276 48.44075282 -18.5992846 47.20998506 -17 46 C-15.515 46.495 -15.515 46.495 -14 47 C-11.59638917 45.49761767 -11.59638917 45.49761767 -9.0625 43.375 C-0.51753603 36.94657519 9.0502681 32.32537197 20 33 C23.06367707 33.99158198 24.71238584 34.71238584 27 37 C27.33333333 42.33333333 27.33333333 42.33333333 26 45 C25.34 45 24.68 45 24 45 C24 43.02 24 41.04 24 39 C18.85752361 37.17525031 14.74090004 38.81828008 10 41 C-0.09259559 46.80163536 -8.49979896 54.75305012 -14 65 C-4.83332069 59.6190402 3.63152817 54.0537221 11.48095703 46.84863281 C16.31532397 42.46218773 16.31532397 42.46218773 20 42 C22.3125 43.6875 22.3125 43.6875 24 46 C23.67825792 51.11458958 19.2105298 54.68154162 16.03125 58.34375 C14.19972716 60.73881833 13.38716497 62.06860812 13 65 C21.4175201 59.11279656 29.23739308 52.71360599 37 46 C37.66 46.66 38.32 47.32 39 48 C18.08081481 69.68870813 18.08081481 69.68870813 8 74 C4.97102876 73.85224531 3.4611714 73.35703592 1.0625 71.5 C-0.6284656 67.52125741 0.80516305 64.02290426 2 60 C0.71416016 61.01320313 0.71416016 61.01320313 -0.59765625 62.046875 C-1.75241935 62.94815352 -2.90737778 63.8491818 -4.0625 64.75 C-4.62388672 65.1934375 -5.18527344 65.636875 -5.76367188 66.09375 C-15.87501076 73.95170479 -15.87501076 73.95170479 -20.75 74.0625 C-23.90925652 72.57062887 -24.73013987 71.24519812 -26 68 C-25.82748655 63.1696234 -24.75507594 59.95293504 -22 56 C-26.96305978 60.20781156 -31.79330205 64.53086563 -36.5703125 68.94921875 C-42.58774933 74.02824501 -42.58774933 74.02824501 -47.125 73.9375 C-50 73 -50 73 -51.9375 71.375 C-53.91386405 66.95724505 -52.14471559 62.49991644 -51 58 C-52.37671875 59.22976563 -52.37671875 59.22976563 -53.78125 60.484375 C-55.02044211 61.57336201 -56.26004772 62.66187861 -57.5 63.75 C-58.10070312 64.28882813 -58.70140625 64.82765625 -59.3203125 65.3828125 C-63.98384321 69.45099887 -69.40418637 74.15633972 -75.875 73.875 C-78 73 -78 73 -80 71 C-81.20885612 63.74686329 -78.36143546 59.51346614 -74.53125 53.44140625 C-72.91144358 51.33911887 -72.91144358 51.33911887 -73 50 C-78.83990628 54.72345361 -83.87130595 59.98563556 -88.78613281 65.64331055 C-93.14249176 70.53522847 -93.14249176 70.53522847 -97 71 C-99.3125 69.5 -99.3125 69.5 -101 67 C-101.27916704 60.16040761 -97.38570633 54.72567462 -94 49 C-100.41821888 53.27881259 -105.91418062 58.7671086 -111.4375 64.125 C-111.96980225 64.62757324 -112.50210449 65.13014648 -113.05053711 65.64794922 C-116.06924034 68.6202259 -117.69394808 70.71527313 -118 75 C-120.875 74.6875 -120.875 74.6875 -124 74 C-126 71 -126 71 -125.828125 67.71484375 C-123.60178375 57.72781297 -116.56759057 49.07022687 -110.3125 41.1875 C-109.49313965 40.13767944 -109.49313965 40.13767944 -108.65722656 39.06665039 C-104.74834512 34.29460713 -104.74834512 34.29460713 -101.28125 32.9296875 C-97.91108345 33.0335625 -96.38396599 34.75226064 -94 37 C-94.125 38.6875 -94.125 38.6875 -95 41 C-96.98260426 42.68732277 -98.9832342 44.35366057 -101 46 C-102.18877868 48.07393065 -102.18877868 48.07393065 -103 50 C-102.2265625 49.33613281 -101.453125 48.67226563 -100.65625 47.98828125 C-85.33999197 34.94913061 -85.33999197 34.94913061 -80.125 35.0625 C-78 36 -78 36 -76 38 C-76.13570889 43.02122894 -79.17532331 46.45631215 -82.0625 50.3125 C-82.53494141 50.95767578 -83.00738281 51.60285156 -83.49414062 52.26757812 C-84.65509704 53.85070051 -85.82652336 55.42613569 -87 57 C-83.67196794 54.46002654 -80.70194169 51.75305352 -77.80102539 48.73535156 C-64.04001548 34.42588743 -64.04001548 34.42588743 -57.33203125 33.71875 C-55 34 -55 34 -53.125 35.75 C-52 38 -52 38 -52.25463867 39.89916992 C-53.10701282 42.30161981 -54.21603575 43.86912039 -55.80078125 45.86328125 C-56.36603516 46.58580078 -56.93128906 47.30832031 -57.51367188 48.05273438 C-58.10728516 48.79845703 -58.70089844 49.54417969 -59.3125 50.3125 C-63.32222635 55.37017255 -66.95109777 60.30118768 -70 66 C-63.58412944 62.91604289 -58.62278462 59.10655775 -53.4609375 54.22265625 C-51.2642247 52.23864104 -49.08387127 50.69139126 -46.625 49.0625 C-40.58851339 44.49521119 -37.01548937 37.86703584 -32.984375 31.5859375 C-11.58964963 -1.69015724 -11.58964963 -1.69015724 0 0 Z " fill="#9D5A3F" transform="translate(747,957)"/>
<path d="M0 0 C2.875 2.5 2.875 2.5 5 5 C4.113125 5.391875 3.22625 5.78375 2.3125 6.1875 C-16.90568664 16.70311156 -32.77072576 46.86983767 -42 66 C-35.36259547 61.3689592 -29.17506846 56.54166167 -23.2890625 50.98046875 C-17.53254438 46 -17.53254438 46 -14 46 C-12.74268851 44.29946359 -11.57069664 42.53564319 -10.4375 40.75 C12.27039904 5.84635771 12.27039904 5.84635771 24 0 C28.53591226 0.15915482 31.7327601 0.7327601 35 4 C35 4.66 35 5.32 35 6 C34.10410156 6.24621094 33.20820312 6.49242187 32.28515625 6.74609375 C21.05313433 11.03322697 12.88176977 25.63461581 6 35 C5.48743652 35.69399902 4.97487305 36.38799805 4.44677734 37.10302734 C3.01889628 39.04209635 1.60043781 40.9875226 0.1875 42.9375 C-0.23917969 43.52241211 -0.66585937 44.10732422 -1.10546875 44.70996094 C-3.32353777 47.56956757 -3.32353777 47.56956757 -4 51 C-3.58492187 50.59910156 -3.16984375 50.19820312 -2.7421875 49.78515625 C1.5839886 45.79385152 6.16165701 42.36461767 11.0625 39.125 C11.6395166 38.7319165 12.2165332 38.33883301 12.81103516 37.93383789 C16.97978519 35.24144637 20.1641686 34.38193828 25 34 C26.5625 35.6875 26.5625 35.6875 28 38 C27.64847354 41.83595541 26.68899914 43.74227633 24 46.4375 C18.81379775 52.03342301 15.00220492 58.53839025 11 65 C16.06505293 62.28154121 20.31294692 59.28594134 24.625 55.5 C25.72083462 54.55148277 26.81718117 53.60355661 27.9140625 52.65625 C28.43540771 52.20523926 28.95675293 51.75422852 29.49389648 51.28955078 C33.16123373 48.14951587 36.75203058 45.45582886 40.99609375 43.13671875 C42.45287402 42.31035801 43.87952857 41.43018577 45.28515625 40.51953125 C53.0278008 35.55000503 61.60369534 31.87244344 71 33 C73.31279611 34.15639806 75.17409828 35.17409828 77 37 C77.23529412 42.52941176 77.23529412 42.52941176 76 45 C75.34 45 74.68 45 74 45 C74 43.02 74 41.04 74 39 C67.36705117 37.20063622 62.45464638 40.09039648 56.66796875 43.2890625 C47.74211827 48.88530501 41.34197799 56.02028416 36 65 C45.46634106 59.39796761 54.18658632 53.55392772 62.42578125 46.25 C65 44 65 44 68 42 C70.0625 42.1875 70.0625 42.1875 72 43 C74 46 74 46 73.76782227 47.98974609 C72.49966997 51.30992606 70.15505295 53.89194987 67.9375 56.625 C64.42586911 60.3859986 64.42586911 60.3859986 63 65 C71.61614577 59.3617848 79.27814379 52.77609573 87 46 C87.66 46.66 88.32 47.32 89 48 C64.68548563 73.14969673 64.68548563 73.14969673 55 74 C52.625 73 52.625 73 51 71 C50.75 67.5 50.75 67.5 51 64 C51 63.01 51 62.02 51 61 C50.21496094 61.60328125 49.42992187 62.2065625 48.62109375 62.828125 C34.06349573 73.94104298 34.06349573 73.94104298 29.8125 74.0625 C27.05827727 72.44795564 25.68358978 70.70576929 24 68 C23.890625 64.82421875 23.890625 64.82421875 24 62 C23.10796875 62.69867187 22.2159375 63.39734375 21.296875 64.1171875 C20.11472354 65.03663863 18.93242408 65.95589949 17.75 66.875 C17.16347656 67.33519531 16.57695313 67.79539062 15.97265625 68.26953125 C8.53295547 74.03738916 8.53295547 74.03738916 4.4375 73.9375 C2 73 2 73 0 71 C-1.54613087 66.36160739 -0.07756228 63.2931904 2 59 C4.20438016 55.24163112 6.58391025 51.62413462 9 48 C9.495 47.01 9.495 47.01 10 46 C-6.0009511 56.35828305 -6.0009511 56.35828305 -16.8125 71.375 C-16.874375 71.91125 -16.93625 72.4475 -17 73 C-16.01 73.495 -16.01 73.495 -15 74 C-18.20863349 74.35651483 -19.64001006 74.23683549 -22.375 72.4375 C-24 70 -24 70 -23.79296875 66.78125 C-22.96600103 62.83787685 -21.6913322 59.68211114 -19.9375 56.0625 C-19.38964844 54.91910156 -18.84179688 53.77570312 -18.27734375 52.59765625 C-17.85582031 51.74042969 -17.43429687 50.88320313 -17 50 C-17.43231934 50.44802979 -17.86463867 50.89605957 -18.31005859 51.35766602 C-39.424732 73.13690484 -39.424732 73.13690484 -48 74 C-50.8125 72.4375 -50.8125 72.4375 -53 70 C-53.62528415 64.97616525 -52.1621018 61.5333502 -49.75 57.25 C-49.3986499 56.61022217 -49.0472998 55.97044434 -48.68530273 55.3112793 C-16.14041768 -2.63517023 -16.14041768 -2.63517023 0 0 Z " fill="#9D5A3F" transform="translate(543,957)"/>
<path d="M0 0 C2.875 1.375 2.875 1.375 5 3 C5 3.66 5 4.32 5 5 C3.95070313 5.54398438 2.90140625 6.08796875 1.8203125 6.6484375 C-12.96495131 15.13641165 -24.03558704 36.82887344 -33.125 50.75 C-33.94170166 52.00018921 -33.94170166 52.00018921 -34.77490234 53.27563477 C-37.44817404 57.42068401 -39.90966706 61.53101234 -42 66 C-41.05125 65.34 -40.1025 64.68 -39.125 64 C-36 62 -36 62 -34 62 C-33.93167969 61.42507813 -33.86335938 60.85015625 -33.79296875 60.2578125 C-32.01103071 55.18411699 -26.17076731 52.16579246 -22 49 C-21.43990234 48.5678418 -20.87980469 48.13568359 -20.30273438 47.69042969 C-11.81455888 41.1777016 -2.61319748 34.20122037 8.4375 33.375 C12 34 12 34 15.0625 36 C17.15188905 39.23518304 17.53884395 40.98827292 16.7578125 44.765625 C12.42388609 57.54400596 1.64168716 66.00646124 -10 72 C-14.82377236 74.16577535 -19.76324407 74.85457497 -25 74 C-27.5625 72 -27.5625 72 -29 70 C-27.82034581 63.25911892 -23.25867445 59.85289019 -18 56 C-12.1888046 52.40293454 -6.41720029 49.26682117 0.1875 47.4375 C2.28706563 46.89610265 2.28706563 46.89610265 4 46 C5.68036511 42.97115156 5.68036511 42.97115156 6 40 C1.10014641 40.55526672 -2.87160682 42.08150049 -7.1875 44.375 C-7.84242432 44.72296631 -8.49734863 45.07093262 -9.17211914 45.42944336 C-15.95064442 49.23041596 -20.73142574 54.31369089 -26 60 C-30.13686058 63.96000594 -34.56067426 67.54444489 -39.125 71 C-39.91132813 71.598125 -40.69765625 72.19625 -41.5078125 72.8125 C-44.76322867 74.36367009 -46.5780808 73.96345298 -50 73 C-51.9375 71.3125 -51.9375 71.3125 -53 69 C-52.80061318 64.41410306 -51.18444471 60.988986 -49 57 C-50.03125 57.78375 -51.0625 58.5675 -52.125 59.375 C-53.74918061 60.58443449 -55.374333 61.79256419 -57 63 C-57.5465625 63.41233887 -58.093125 63.82467773 -58.65625 64.24951172 C-60.47105586 65.61509343 -62.29704062 66.96459125 -64.125 68.3125 C-64.71039551 68.75706543 -65.29579102 69.20163086 -65.89892578 69.65966797 C-69.57682395 72.34533115 -72.4529315 73.63374676 -77 74 C-80.95466242 70.16517584 -80.95466242 70.16517584 -81.078125 66.9921875 C-80.68701977 63.87484873 -79.992607 60.97782099 -79 58 C-79.37769531 58.4125 -79.75539063 58.825 -80.14453125 59.25 C-85.72633148 65.106315 -92.7941531 72.47367973 -100.9375 74.3125 C-104 74 -104 74 -106.625 72.125 C-108.08825404 68.79942263 -108.17892809 68.24906831 -107.25 64.9375 C-103.03717172 54.44024607 -94.46990254 41.31326836 -85 35 C-81.78690612 35.16065469 -80.44156286 35.54321084 -78.1875 37.875 C-77 40 -77 40 -77 43 C-77.70769531 43.17917969 -78.41539062 43.35835937 -79.14453125 43.54296875 C-83.1972382 45.61090266 -85.11490142 48.64085931 -87.6875 52.3125 C-88.17283203 52.97701172 -88.65816406 53.64152344 -89.15820312 54.32617188 C-91.62145639 57.76113608 -93.6599512 60.94850742 -95 65 C-88.07250865 60.46680289 -81.82853188 55.41138448 -75.73583984 49.82519531 C-74.22110129 48.47487016 -72.61604872 47.22727237 -71 46 C-70.01 46.33 -69.02 46.66 -68 47 C-66.44236878 45.61543891 -64.88678293 44.22852815 -63.33984375 42.83203125 C-56.01666523 37.0981903 -47.56000973 33.26662689 -38.20703125 33.0703125 C-35.82236031 33.09959744 -35.82236031 33.09959744 -33 32 C-31.2114451 29.89462792 -31.2114451 29.89462792 -29.4375 27.25 C-9.60197368 -0.75309598 -9.60197368 -0.75309598 0 0 Z M-61.55371094 53.49267578 C-64.68382964 56.75488929 -67.42412803 60.29074437 -70 64 C-69.67 64.66 -69.34 65.32 -69 66 C-64.64942811 63.15310938 -60.31931499 60.27893718 -56.01416016 57.36376953 C-54.74826266 56.50664184 -53.48003681 55.65293272 -52.20849609 54.80419922 C-44.8022804 49.82112534 -39.86296319 45.11561125 -36 37 C-46.16401017 37 -54.71467652 46.69855059 -61.55371094 53.49267578 Z M-3 52 C-10.52202693 55.9473389 -16.85279533 62.23209093 -23 68 C-22.01 68.33 -21.02 68.66 -20 69 C-17.77568215 67.74957267 -15.80649034 66.48704568 -13.75 65 C-13.17096924 64.59080322 -12.59193848 64.18160645 -11.99536133 63.76000977 C-7.54514109 60.55008643 -3.70973609 57.05482782 0 53 C-0.99 52.67 -1.98 52.34 -3 52 Z " fill="#9D5A3F" transform="translate(364,957)"/>
<path d="M0 0 C2.59375 2.09375 2.59375 2.09375 3.59375 4.09375 C4.19627646 10.11901459 3.03642492 14.23131966 -0.40625 19.09375 C-6.6341731 25.94319699 -14.46949244 31.44209686 -23.71875 33.09375 C-27.67635929 33.09375 -29.32624986 32.50000011 -32.40625 30.09375 C-31.96155671 25.05389269 -29.69281638 22.71740012 -26.40625 19.09375 C-25.40625 21.09375 -25.40625 21.09375 -25.40625 24.09375 C-12.30641001 18.21073565 -12.30641001 18.21073565 -2.40625 8.09375 C-2.02125109 6.43825469 -1.67831865 4.7715067 -1.40625 3.09375 C-18.67567012 1.47810778 -34.48975526 10.59572735 -47.85546875 20.671875 C-50.87371505 23.43923433 -52.35379429 25.1845177 -52.59375 29.34375 C-52.531875 30.25125 -52.47 31.15875 -52.40625 32.09375 C-45.55647128 35.81037439 -38.79555498 37.80445163 -31.27148438 39.71679688 C-23.09828147 41.90786004 -15.19127472 44.71683689 -10.40625 52.09375 C-8.88990138 55.12644725 -8.89316025 57.81601193 -9.40625 61.09375 C-13.66908751 73.88226252 -24.77325076 80.90465133 -36.15917969 86.97802734 C-53.51164626 95.59393045 -79.80657652 105.7277236 -99.28125 99.84375 C-105.45995882 97.45552567 -105.45995882 97.45552567 -107.40625 94.09375 C-108.05101642 89.76335933 -107.26636238 86.42503506 -104.89453125 82.75390625 C-91.56034528 66.93139348 -66.79138183 54.55183242 -46.40625 52.09375 C-46.40625 52.75375 -46.40625 53.41375 -46.40625 54.09375 C-47.96859375 54.58681641 -47.96859375 54.58681641 -49.5625 55.08984375 C-67.50806155 60.95767709 -86.99757111 70.40938604 -98.40625 86.09375 C-99.27167699 88.81488503 -99.27167699 88.81488503 -99.40625 91.09375 C-73.50856804 92.58593398 -44.75948438 82.65807171 -24.78125 65.890625 C-19.32478976 60.67455043 -19.32478976 60.67455043 -17.28125 53.65625 C-19.07035138 49.58107464 -22.53079197 48.06824132 -26.40625 46.09375 C-29.83207111 44.8271137 -33.30904944 43.88109521 -36.84375 42.96875 C-38.63463889 42.48893183 -40.42500991 42.00717638 -42.21484375 41.5234375 C-43.07972412 41.29035889 -43.94460449 41.05728027 -44.83569336 40.81713867 C-58.27287505 37.03573784 -58.27287505 37.03573784 -61.40625 33.09375 C-62.3372587 28.26414239 -61.99955984 24.3545334 -59.90625 19.90625 C-47.60620722 6.06870188 -18.35605406 -10.27265411 0 0 Z " fill="#9D5A3F" transform="translate(136.40625,950.90625)"/>
<path d="M0 0 C2.97 0 5.94 0 9 0 C8.07361787 2.38212548 7.16764006 4.69430342 5.9375 6.9375 C4.73861104 9.57505571 4.38972169 12.14204094 4 15 C8.85159561 12.0144027 12.77668447 8.49366097 16.8515625 4.51171875 C19 3 19 3 21.05859375 3.1171875 C28.47890638 6.49141417 32.06912598 12.6607039 35 20 C37.42550518 27.40090041 37.27011645 37.34988016 34.0625 44.4375 C28.0300776 54.60982013 18.66209512 59.30920196 7.86328125 63.1015625 C-4.016381 65.86427465 -18.07574271 66.01902184 -28.79296875 59.80078125 C-31.27389376 57.77652208 -33.09773351 55.5669665 -35 53 C-32.39951564 52.167845 -30.58027058 52.02468997 -27.8125 52.1875 C-21.38926681 51.87160329 -16.09177553 49.56345174 -11.625 44.875 C-5.47556998 36.62344552 -5.40127269 26.27692895 -4.91601562 16.390625 C-4.49074776 9.94717254 -3.28192625 5.5825897 0 0 Z " fill="#FE5352" transform="translate(593,35)"/>
<path d="M0 0 C2.625 1.875 2.625 1.875 3.6875 4.875 C3.625 7.875 3.625 7.875 2.1875 9.75 C1.671875 10.12125 1.15625 10.4925 0.625 10.875 C0.625 8.565 0.625 6.255 0.625 3.875 C-11.15233564 4.44487108 -19.88031339 9.89137583 -28.375 17.875 C-33.81731789 23.7964512 -33.81731789 23.7964512 -37.375 30.875 C-29.58898063 26.21927822 -22.50893858 20.99327288 -15.44140625 15.328125 C-14.42949219 14.51859375 -13.41757813 13.7090625 -12.375 12.875 C-11.6325 12.27042969 -10.89 11.66585937 -10.125 11.04296875 C-8.375 9.875 -8.375 9.875 -5.8125 9.9375 C-2.88712135 11.06264563 -1.9238337 12.18492042 -0.375 14.875 C-0.375 15.535 -0.375 16.195 -0.375 16.875 C-1.035 16.875 -1.695 16.875 -2.375 16.875 C-2.643125 17.57625 -2.91125 18.2775 -3.1875 19 C-4.4431449 22.0399824 -5.87735123 24.9477774 -7.375 27.875 C-5.065 27.545 -2.755 27.215 -0.375 26.875 C-0.375 27.535 -0.375 28.195 -0.375 28.875 C-1.05304688 29.0503125 -1.73109375 29.225625 -2.4296875 29.40625 C-12.21687977 32.76805565 -15.27062354 39.31878395 -20.12353516 47.80029297 C-23.36646569 53.17649736 -27.4375065 57.99967968 -31.375 62.875 C-31.89449219 63.54917969 -32.41398437 64.22335937 -32.94921875 64.91796875 C-39.82421947 73.52649401 -50.30033261 82.95497729 -61.59765625 84.2421875 C-64.59563935 84.30650657 -67.40929921 84.32079363 -70.375 83.875 C-72.375 81.875 -72.375 81.875 -72.875 78.375 C-72.6099594 69.75338533 -65.98214848 62.79546801 -60.03515625 57.15625 C-49.87462732 48.44296234 -37.68364174 39.88994468 -25.1484375 35.0078125 C-22.33574815 33.21116071 -21.22009985 30.63344974 -19.625 27.75 C-19.01140625 26.65429688 -18.3978125 25.55859375 -17.765625 24.4296875 C-17.07726562 23.16511719 -17.07726562 23.16511719 -16.375 21.875 C-16.84284912 22.24262451 -17.31069824 22.61024902 -17.79272461 22.98901367 C-19.96094235 24.68672629 -22.13663011 26.37460763 -24.3125 28.0625 C-25.04791016 28.64064453 -25.78332031 29.21878906 -26.54101562 29.81445312 C-39.95409414 40.18176708 -39.95409414 40.18176708 -44.52709961 39.60229492 C-47.21431836 38.54466186 -48.03144036 37.42776332 -49.375 34.875 C-50.19802513 30.21119095 -49.39065059 27.40459802 -46.9375 23.5 C-36.98327778 9.82457321 -18.12997249 -6.04332416 0 0 Z M-29.375 40.875 C-43.13985502 47.89747691 -59.86770381 59.42160847 -66.375 73.875 C-66.375 74.865 -66.375 75.855 -66.375 76.875 C-57.64228052 76.875 -51.57914014 70.97188859 -45.57421875 65.16796875 C-38.67861739 58.01980794 -32.95992233 50.06460411 -27.375 41.875 C-28.035 41.545 -28.695 41.215 -29.375 40.875 Z " fill="#9D5A3F" transform="translate(256.375,991.125)"/>
<path d="M0 0 C-6.17547981 16.98995641 -26.38838769 34.09096177 -41.03515625 44.2421875 C-43.69883569 45.26953106 -45.32229244 44.87601225 -48 44 C-50.08450135 39.83099731 -49.16694117 35.57177352 -47.90625 31.25390625 C-47.4421875 30.03574219 -46.978125 28.81757812 -46.5 27.5625 C-46.26152344 26.92634766 -46.02304688 26.29019531 -45.77734375 25.63476562 C-45.19509076 24.08597268 -44.59898931 22.54239747 -44 21 C-44.48726562 21.46148438 -44.97453125 21.92296875 -45.4765625 22.3984375 C-56.2542183 32.31388084 -69.80167579 44.13313083 -85.0546875 45.14453125 C-87.98808193 44.92658829 -89.78135611 43.87198078 -92 42 C-93.78585255 38.4282949 -92.94376482 34.77505927 -92 31 C-85.96859212 18.60210602 -74.80836182 10.57796235 -62.3125 5.5625 C-57.69493895 3.98625041 -54.68013925 3.60591597 -50 5 C-48 7 -48 7 -47.5625 9.75 C-48.1972845 14.46554203 -50.97463149 17.3602817 -54.57836914 20.27783203 C-56.27051482 21.47478249 -57.98943013 22.59381266 -59.75 23.6875 C-60.36472168 24.07542725 -60.97944336 24.46335449 -61.61279297 24.86303711 C-67.50160639 28.48009843 -72.93360123 31 -80 31 C-81.07525194 33.65228812 -82.09456151 36.28368454 -83 39 C-70.35385335 37.44696445 -59.44828138 28.67565335 -49.56762695 21.09960938 C-46.31587285 18.6664753 -45.21836366 18 -41 18 C-40.7215625 17.01 -40.7215625 17.01 -40.4375 16 C-38.37066625 11.68660782 -35.23462189 8.48543481 -32 5 C-26.18598616 6.00865052 -26.18598616 6.00865052 -24 9 C-24 9.99 -24 10.98 -24 12 C-25.14206812 13.07285187 -26.28470489 14.14510286 -27.4296875 15.21484375 C-32.13865975 20.56807838 -35.42642602 27.39873752 -38 34 C-29.29168925 27.24846579 -21.61806539 19.80768111 -13.9375 11.9375 C-11.72318089 9.67005999 -9.50230259 7.40933815 -7.27734375 5.15234375 C-6.77532944 4.63373276 -6.27331512 4.11512177 -5.75608826 3.58079529 C-2.22546869 0 -2.22546869 0 0 0 Z M-56 10 C-63.90871762 13.86648417 -70.10017473 19.57574582 -76 26 C-75.34 26.33 -74.68 26.66 -74 27 C-66.09128238 23.13351583 -59.89982527 17.42425418 -54 11 C-54.66 10.67 -55.32 10.34 -56 10 Z " fill="#9D5A3F" transform="translate(224,986)"/>
<path d="M0 0 C3.06527945 1.53263972 4.50300013 3.34483354 6.375 6.1875 C6.375 6.8475 6.375 7.5075 6.375 8.1875 C5.27091797 8.52394531 5.27091797 8.52394531 4.14453125 8.8671875 C0.76113894 10.48014462 -0.68778848 12.3383051 -2.9375 15.3125 C-3.63488281 16.22257813 -4.33226562 17.13265625 -5.05078125 18.0703125 C-5.83001953 19.11832031 -5.83001953 19.11832031 -6.625 20.1875 C-5.93108154 19.64391846 -5.93108154 19.64391846 -5.22314453 19.08935547 C18.60914556 0.47944547 18.60914556 0.47944547 25.375 1.1875 C27.25 2.9375 27.25 2.9375 28.375 5.1875 C27.99804333 9.10784942 25.82898301 11.28685406 23.3125 14.1875 C18.49386101 19.9096338 14.40824826 25.89035763 10.375 32.1875 C19.2131911 29.2414363 26.50658293 21.43230479 33.16015625 15.09375 C35.375 13.1875 35.375 13.1875 37.375 13.1875 C36.23623905 21.76747477 24.4035927 29.14541146 18.05078125 34.1953125 C10.66503816 39.69418692 10.66503816 39.69418692 6.375 41.1875 C3.4375 40.6875 3.4375 40.6875 1.375 39.1875 C-0.72946583 36.03080125 -0.94102247 34.92213982 -0.30078125 31.28125 C1.82365829 24.69917142 6.56678882 18.87916486 10.375 13.1875 C3.19974856 17.83790846 -3.47586505 22.68420429 -9.75 28.5 C-10.29358154 29.00305664 -10.83716309 29.50611328 -11.3972168 30.02441406 C-16.97526584 35.24906385 -16.97526584 35.24906385 -19.625 42.1875 C-22 41.875 -22 41.875 -24.625 41.1875 C-26.893674 37.78448899 -26.788404 36.2426877 -26.16845703 32.29199219 C-25.29211464 28.89842912 -23.53540547 26.1545933 -21.5625 23.3125 C-20.9595813 22.41241211 -20.9595813 22.41241211 -20.34448242 21.49414062 C-16.72231372 16.16085118 -12.83750931 11.0693699 -8.625 6.1875 C-7.80515625 5.20716797 -7.80515625 5.20716797 -6.96875 4.20703125 C-3.41366137 0.24383295 -3.41366137 0.24383295 0 0 Z " fill="#9D5A3F" transform="translate(403.625,989.8125)"/>
<path d="M0 0 C2.9375 2.5 2.9375 2.5 5 5 C4.154375 5.350625 3.30875 5.70125 2.4375 6.0625 C-4.41164408 9.92292666 -9.24301175 16.23807648 -13.9375 22.4375 C-14.74960937 23.5059314 -14.74960937 23.5059314 -15.578125 24.59594727 C-20.42613554 31.06839701 -24.9930106 37.72444425 -29.5 44.4375 C-30.17023193 45.43128662 -30.84046387 46.42507324 -31.53100586 47.44897461 C-35.50133268 53.43622945 -38.96464293 59.48737359 -42 66 C-35.02622373 60.93143065 -28.43202467 55.77826332 -22.15625 49.84765625 C-20.16273163 48.13944214 -18.39558385 47.03990117 -16 46 C-16 49.65541822 -16.61512147 49.99947727 -19.11328125 52.51171875 C-19.77932373 53.18388428 -20.44536621 53.8560498 -21.1315918 54.54858398 C-21.8512915 55.25442627 -22.57099121 55.96026855 -23.3125 56.6875 C-24.03928955 57.40558838 -24.7660791 58.12367676 -25.51489258 58.86352539 C-40.37431801 73.32271903 -40.37431801 73.32271903 -48 74 C-50.8125 72.4375 -50.8125 72.4375 -53 70 C-53.73440805 64.65600953 -51.83048514 60.87430773 -49.3125 56.3125 C-48.71779907 55.21470215 -48.71779907 55.21470215 -48.11108398 54.09472656 C-40.4139733 40.2384626 -30.91080456 27.34447547 -21 15 C-20.55994629 14.45166504 -20.11989258 13.90333008 -19.66650391 13.33837891 C-8.00599887 -1.12364896 -8.00599887 -1.12364896 0 0 Z " fill="#9D5A3F" transform="translate(514,957)"/>
<path d="M0 0 C2.5625 1.1875 2.5625 1.1875 4 3 C4.5 5.5 4.5 5.5 4 8 C2.19252626 10.27898863 0.72557499 10.89083092 -2.12890625 11.3203125 C-6.01431136 11.51234241 -8.30146787 11.44905637 -11.625 9.3125 C-13 7 -13 7 -12.9375 4.375 C-10.69172274 -1.31430238 -5.17012531 -0.59727079 0 0 Z " fill="#9D5A3F" transform="translate(527,946)"/>
<path d="M0 0 C1.8125 1.375 1.8125 1.375 3 3 C3 3.99 3 4.98 3 6 C1.3603125 6.8971875 1.3603125 6.8971875 -0.3125 7.8125 C-2.48868809 9.03605957 -3.97478286 9.97291492 -5.6875 11.8125 C-6.120625 12.204375 -6.55375 12.59625 -7 13 C-9.1875 12.6875 -9.1875 12.6875 -11 12 C-11.50341475 6.7141451 -10.26910671 4.13445849 -7 0 C-4.26634878 -1.36682561 -2.89333621 -0.84683011 0 0 Z " fill="#9D5A3F" transform="translate(294,978)"/>
</svg>
